HIERARCHY
ROOT joint_Root
{
	OFFSET 0.0 0.0 0.0
	CHANNELS 6 Xposition Yposition Zposition Zrotation Xrotation Yrotation 
	JOINT Hips
	{
		OFFSET -17.1583 93.1646 452.98
		CHANNELS 6 Xposition Yposition Zposition Zrotation Xrotation Yrotation 
		JOINT Spine
		{
			OFFSET 15.7357 0.0 0.0
			CHANNELS 6 Xposition Yposition Zposition Zrotation Xrotation Yrotation 
			JOINT Chest
			{
				OFFSET 8.98455 -0.406207 0.0
				CHANNELS 6 Xposition Yposition Zposition Zrotation Xrotation Yrotation 
				JOINT Neck
				{
					OFFSET 16.3773 0.0 0.0
					CHANNELS 6 Xposition Yposition Zposition Zrotation Xrotation Yrotation 
					JOINT Head
					{
						OFFSET 6.45672 0.0 0.0
						CHANNELS 6 Xposition Yposition Zposition Zrotation Xrotation Yrotation 
						End Site
						{
							OFFSET 0.0 0.0 0.0
						}
					}
				}
				JOINT Shoulder_L
				{
					OFFSET 12.9942 -0.242716 4.98039
					CHANNELS 6 Xposition Yposition Zposition Zrotation Xrotation Yrotation 
					JOINT UpperArm_L
					{
						OFFSET 5.34809 0.0 0.0
						CHANNELS 6 Xposition Yposition Zposition Zrotation Xrotation Yrotation 
						JOINT LowerArm_L
						{
							OFFSET 24.3286 1.87007e-05 0.0
							CHANNELS 6 Xposition Yposition Zposition Zrotation Xrotation Yrotation 
							JOINT Hand_L
							{
								OFFSET 22.2916 0.0 0.0
								CHANNELS 6 Xposition Yposition Zposition Zrotation Xrotation Yrotation 
								End Site
								{
									OFFSET 0.0 0.0 0.0
								}
							}
						}
					}
				}
				JOINT Shoulder_R
				{
					OFFSET 12.9945 -0.242716 -4.98039
					CHANNELS 6 Xposition Yposition Zposition Zrotation Xrotation Yrotation 
					JOINT UpperArm_R
					{
						OFFSET -5.34813 0.0 0.0
						CHANNELS 6 Xposition Yposition Zposition Zrotation Xrotation Yrotation 
						JOINT LowerArm_R
						{
							OFFSET -24.3289 0.000322201 0.0
							CHANNELS 6 Xposition Yposition Zposition Zrotation Xrotation Yrotation 
							JOINT Hand_R
							{
								OFFSET -22.2915 -0.000108084 0.0
								CHANNELS 6 Xposition Yposition Zposition Zrotation Xrotation Yrotation 
								End Site
								{
									OFFSET 0.0 0.0 0.0
								}
							}
						}
					}
				}
			}
		}
		JOINT UpperLeg_L
		{
			OFFSET -2.19248 -6.46944 0.0
			CHANNELS 6 Xposition Yposition Zposition Zrotation Xrotation Yrotation 
			JOINT LowerLeg_L
			{
				OFFSET 39.0811 0.0 -1.23785e-05
				CHANNELS 6 Xposition Yposition Zposition Zrotation Xrotation Yrotation 
				JOINT Foot_L
				{
					OFFSET 40.9854 0.0 -1.26872e-05
					CHANNELS 6 Xposition Yposition Zposition Zrotation Xrotation Yrotation 
					JOINT Toes_L
					{
						OFFSET 11.7543 0.0 0.0
						CHANNELS 6 Xposition Yposition Zposition Zrotation Xrotation Yrotation 
						End Site
						{
							OFFSET 0.0 0.0 0.0
						}
					}
				}
			}
		}
		JOINT UpperLeg_R
		{
			OFFSET -2.19251 6.46944 0.0
			CHANNELS 6 Xposition Yposition Zposition Zrotation Xrotation Yrotation 
			JOINT LowerLeg_R
			{
				OFFSET -39.0811 -0.00228153 -0.0401928
				CHANNELS 6 Xposition Yposition Zposition Zrotation Xrotation Yrotation 
				JOINT Foot_R
				{
					OFFSET -40.9854 0.0 0.0
					CHANNELS 6 Xposition Yposition Zposition Zrotation Xrotation Yrotation 
					JOINT Toes_R
					{
						OFFSET -11.7543 0.0 0.0
						CHANNELS 6 Xposition Yposition Zposition Zrotation Xrotation Yrotation 
						End Site
						{
							OFFSET 0.0 0.0 0.0
						}
					}
				}
			}
		}
	}
}
MOTION
Frames:	5
Frame Time:	0.0333333
0.000000 0.000000 0.000000 0.000000 0.000000 -0.000000 -0.467749 87.202300 450.842000 -95.295300 -2.152740 154.812000 15.735700 0.000005 -0.000001 113.151000 84.006900 -113.332000 8.984550 -0.406207 -0.000000 3.271920 4.714240 -0.496650 16.377300 -0.000001 -0.000001 -10.527200 -1.952900 1.482840 6.456720 -0.000001 -0.000000 -5.514240 -4.369080 -0.841214 12.994200 -0.242716 4.980390 -91.267100 3.736420 -71.252800 5.348090 -0.000007 -0.000001 -36.884900 -21.741500 20.230400 24.328600 0.000019 0.000005 0.322584 4.457060 -4.139720 22.291600 -0.000001 0.000005 40.823900 4.545300 15.823400 12.994500 -0.242716 -4.980390 90.174400 -0.718056 -76.349000 -5.348130 -0.000001 -0.000004 -57.291400 -1.112290 -7.852280 -24.328900 0.000322 -0.000009 -9.880900 -2.487100 -76.002800 -22.291500 -0.000108 -0.000004 18.088900 5.397680 -2.865370 -2.192480 -6.469440 -0.000000 175.188000 2.673390 -66.298300 39.081100 -0.000007 -0.000012 0.038857 -0.008715 77.349500 40.985400 -0.000006 -0.000013 -6.544210 -0.651047 -68.648200 11.754300 -0.000000 0.000003 0.002175 0.054096 -14.382600 -2.192510 6.469440 -0.000001 175.775000 11.674000 169.810000 -39.081100 -0.002282 -0.040193 0.065009 -0.100091 31.655800 -40.985400 0.000008 0.000006 -2.762940 -0.148803 -60.932100 -11.754300 -0.000006 -0.000006 -0.140277 -0.535168 -39.148200
0.000000 0.000000 0.000000 0.000000 0.000000 -0.000000 -0.570580 88.989900 443.351000 -96.315600 -2.547250 153.201000 15.735700 0.000005 -0.000001 118.888000 84.501300 -119.789000 8.984550 -0.406207 -0.000000 1.914060 5.355630 -1.890030 16.377300 -0.000001 -0.000001 -10.531100 -2.145840 0.944076 6.456720 -0.000001 -0.000000 -5.235740 -5.575020 0.080435 12.994200 -0.242716 4.980390 -90.937000 2.831200 -71.678700 5.348090 -0.000007 -0.000001 -38.257500 -24.460200 17.748100 24.328600 0.000019 0.000005 -0.194134 -3.374640 -3.299260 22.291600 -0.000001 0.000005 54.514400 4.394600 18.292100 12.994500 -0.242716 -4.980390 90.199800 -0.851529 -76.794600 -5.348130 -0.000001 -0.000004 -60.751200 -4.741940 -5.942170 -24.328900 0.000322 -0.000009 -12.132900 -2.027310 -80.653200 -22.291500 -0.000108 -0.000004 21.305100 5.389780 -2.608280 -2.192480 -6.469440 -0.000000 174.275000 2.827060 -66.808200 39.081100 -0.000007 -0.000012 -0.002478 0.001296 62.485700 40.985400 -0.000006 -0.000013 -7.531970 4.798310 -71.204800 11.754300 -0.000000 0.000003 0.002250 0.057928 -14.227200 -2.192510 6.469440 -0.000001 175.673000 10.025200 173.688000 -39.081100 -0.002282 -0.040193 0.041353 -0.086603 23.712400 -40.985400 0.000008 0.000006 2.218260 -3.425530 -43.611400 -11.754300 -0.000006 -0.000006 -0.132062 -0.518015 -38.377200
0.000000 0.000000 0.000000 0.000000 0.000000 -0.000000 -0.250169 89.458200 435.183000 -94.938700 -4.162530 154.526000 15.735700 0.000005 -0.000001 117.844000 84.196700 -118.297000 8.984550 -0.406207 -0.000000 2.529010 5.437310 -1.025700 16.377300 -0.000001 -0.000001 -10.888800 -1.655660 0.118335 6.456720 -0.000001 -0.000000 -5.947370 -6.027620 -0.031980 12.994200 -0.242716 4.980390 -90.913500 2.748710 -71.609100 5.348090 -0.000007 -0.000001 -41.755700 -25.219800 13.810100 24.328600 0.000019 0.000005 -0.294130 -8.579070 -1.973610 22.291600 -0.000001 0.000005 55.008600 4.270880 20.242200 12.994500 -0.242716 -4.980390 90.052500 -0.229665 -77.120900 -5.348130 -0.000001 -0.000004 -63.025900 -5.940510 -4.374240 -24.328900 0.000322 -0.000009 -11.183100 -0.871139 -85.601800 -22.291500 -0.000108 -0.000004 24.616200 5.459190 -4.942200 -2.192480 -6.469440 -0.000000 175.755000 2.046850 -62.685200 39.081100 -0.000007 -0.000012 -0.052137 0.046247 48.428000 40.985400 -0.000006 -0.000013 -9.609250 12.196600 -73.778400 11.754300 -0.000000 0.000003 0.002182 0.054430 -14.369000 -2.192510 6.469440 -0.000001 179.017000 2.473690 177.935000 -39.081100 -0.002282 -0.040193 0.013298 -0.025718 21.206200 -40.985400 0.000008 0.000006 4.058180 -9.062800 -29.119400 -11.754300 -0.000006 -0.000006 -0.012006 -0.118065 -21.386100
0.000000 0.000000 0.000000 0.000000 0.000000 -0.000000 -0.186451 88.589900 426.709000 -93.734100 -5.388800 156.649000 15.735700 0.000005 -0.000001 115.279000 83.775100 -115.255000 8.984550 -0.406207 -0.000000 3.503260 5.309100 -0.114623 16.377300 -0.000001 -0.000001 -11.428600 -1.394150 -0.741974 6.456720 -0.000001 -0.000000 -6.482940 -6.003610 -0.441948 12.994200 -0.242716 4.980390 -91.136900 3.392870 -71.462200 5.348090 -0.000007 -0.000001 -46.223500 -24.061300 9.437260 24.328600 0.000019 0.000005 -0.330510 -15.140800 -1.265900 22.291600 -0.000001 0.000005 46.646600 4.328100 19.342700 12.994500 -0.242716 -4.980390 89.909800 0.400549 -77.315400 -5.348130 -0.000001 -0.000004 -64.989400 -4.591110 -1.546490 -24.328900 0.000322 -0.000009 -10.233200 -0.353426 -88.041600 -22.291500 -0.000108 -0.000004 27.425700 5.647150 -14.718300 -2.192480 -6.469440 -0.000000 175.621000 0.530736 -57.103200 39.081100 -0.000007 -0.000012 -0.076903 0.095477 38.850700 40.985400 -0.000006 -0.000013 -10.717700 16.530500 -76.234600 11.754300 -0.000000 0.000003 0.002406 0.068696 -13.790600 -2.192510 6.469440 -0.000001 -178.061000 -1.100560 179.149000 -39.081100 -0.002282 -0.040193 -0.018245 0.043390 26.416300 -40.985400 0.000008 0.000006 0.870397 -3.540150 -17.670300 -11.754300 -0.000006 -0.000006 0.001227 0.143532 -10.752500
0.000000 0.000000 0.000000 0.000000 0.000000 -0.000000 -0.696803 87.020900 418.223000 -93.887000 -5.095380 157.778000 15.735700 0.000005 -0.000001 112.885000 83.459700 -113.038000 8.984550 -0.406207 -0.000000 4.305680 5.083280 -0.497609 16.377300 -0.000001 -0.000001 -12.540000 -1.150480 -1.157880 6.456720 -0.000001 -0.000000 -6.948300 -5.643330 -0.859247 12.994200 -0.242716 4.980390 -91.370900 4.168980 -71.778900 5.348090 -0.000007 -0.000001 -51.842200 -21.587000 4.771180 24.328600 0.000019 0.000005 -0.346596 -16.818100 -1.197960 22.291600 -0.000001 0.000005 35.905100 4.454310 17.336000 12.994500 -0.242716 -4.980390 89.903400 0.435428 -77.491000 -5.348130 -0.000001 -0.000004 -68.136900 -1.985560 1.789940 -24.328900 0.000322 -0.000009 -3.896100 -0.265089 -86.080700 -22.291500 -0.000108 -0.000004 30.679200 5.677940 -23.577000 -2.192480 -6.469440 -0.000000 172.264000 0.453863 -55.140500 39.081100 -0.000007 -0.000012 0.779118 -0.889156 41.229100 40.985400 -0.000006 -0.000013 4.137030 12.831700 -77.782300 11.754300 -0.000000 0.000003 0.001243 0.024517 -15.582300 -2.192510 6.469440 -0.000001 -178.588000 -0.610309 175.355000 -39.081100 -0.002282 -0.040193 -0.036179 0.047336 39.813300 -40.985400 0.000008 0.000006 -4.260840 3.789440 -19.851200 -11.754300 -0.000006 -0.000006 0.000633 0.156232 -10.237100
